{
  "accessors": [
    {
      "bufferView": 3,
      "componentType": 5126,
      "count": 1885,
      "max": [
        350.07269287109375,
        1192.5179443359375,
        253.38380432128906
      ],
      "min": [
        -350.07220458984375,
        -0.16187630593776703,
        -490.8913879394531
      ],
      "type": "VEC3"
    },
    {
      "bufferView": 3,
      "byteOffset": 22620,
      "componentType": 5126,
      "count": 1885,
      "max": [
        0.9994491934776306,
        0.9999954104423523,
        0.9999889731407166
      ],
      "min": [
        -0.9994491934776306,
        -0.9999997019767761,
        -0.9999973773956299
      ],
      "type": "VEC3"
    },
    {
      "bufferView": 2,
      "componentType": 5126,
      "count": 1885,
      "max": [
        0.9920200109481812,
        0.9910299777984619
      ],
      "min": [
        0.006850000005215406,
        0.006290019024163485
      ],
      "type": "VEC2"
    },
    {
      "bufferView": 1,
      "componentType": 5125,
      "count": 7770,
      "type": "SCALAR"
    },
    {
      "bufferView": 5,
      "componentType": 5126,
      "count": 72,
      "max": [
        1.0,
        0.947760283946991,
        1.0,
        0.0,
        1.0,
        1.0,
        0.843254804611206,
        0.0,
        0.9999976754188538,
        1.0,
        1.0,
        0.0,
        724.5298461914063,
        955.1862182617188,
        819.2845458984375,
        1.0
      ],
      "min": [
        -0.7331284284591675,
        -0.9477601647377014,
        -0.9999992847442627,
        0.0,
        -0.9999984502792358,
        -0.9999976754188538,
        -0.8432539701461792,
        0.0,
        -0.9782012104988098,
        -0.9998909831047058,
        -0.9978217482566833,
        0.0,
        -876.6272583007813,
        -1065.572021484375,
        -819.050537109375,
        1.0
      ],
      "type": "MAT4"
    },
    {
      "bufferView": 0,
      "componentType": 5123,
      "count": 1885,
      "type": "VEC4"
    },
    {
      "bufferView": 4,
      "componentType": 5126,
      "count": 1885,
      "max": [
        1.0,
        0.48924019932746887,
        0.32061928510665894,
        0.0
      ],
      "min": [
        0.34479066729545593,
        0.0,
        0.0,
        0.0
      ],
      "type": "VEC4"
    }
  ],
  "asset": {
    "extras": {
      "author": "Unwanted_gest (https://sketchfab.com/Unwanted_gest)",
      "license": "CC-BY-4.0 (http://creativecommons.org/licenses/by/4.0/)",
      "source": "https://sketchfab.com/3d-models/nick-wilde-zootopia-0f72e6862a23474eb111bea5eed003f9",
      "title": "Nick Wilde zootopia"
    },
    "generator": "Sketchfab-16.52.0",
    "version": "2.0"
  },
  "bufferViews": [
    {
      "buffer": 0,
      "byteLength": 15080,
      "byteStride": 8,
      "name": "shortBufferViews",
      "target": 34962
    },
    {
      "buffer": 0,
      "byteLength": 31080,
      "byteOffset": 15080,
      "name": "floatBufferViews",
      "target": 34963
    },
    {
      "buffer": 0,
      "byteLength": 15080,
      "byteOffset": 46160,
      "byteStride": 8,
      "name": "floatBufferViews",
      "target": 34962
    },
    {
      "buffer": 0,
      "byteLength": 45240,
      "byteOffset": 61240,
      "byteStride": 12,
      "name": "floatBufferViews",
      "target": 34962
    },
    {
      "buffer": 0,
      "byteLength": 30160,
      "byteOffset": 106480,
      "byteStride": 16,
      "name": "floatBufferViews",
      "target": 34962
    },
    {
      "buffer": 0,
      "byteLength": 4608,
      "byteOffset": 136640,
      "name": "floatBufferViews"
    }
  ],
  "buffers": [
    {
      "byteLength": 141248,
      "uri": "scene.bin"
    }
  ],
  "images": [
    {
      "uri": "textures/nick_wilde_mat_baseColor.png"
    }
  ],
  "materials": [
    {
      "doubleSided": true,
      "name": "nick_wilde_mat",
      "pbrMetallicRoughness": {
        "baseColorTexture": {
          "index": 0
        },
        "metallicFactor": 0.0,
        "roughnessFactor": 0.9487198333588512
      }
    }
  ],
  "meshes": [
    {
      "name": "nick_wilde_lod0_nick_wilde_mat_0",
      "primitives": [
        {
          "attributes": {
            "JOINTS_0": 5,
            "NORMAL": 1,
            "POSITION": 0,
            "TEXCOORD_0": 2,
            "TEXCOORD_1": 2,
            "TEXCOORD_2": 2,
            "TEXCOORD_3": 2,
            "TEXCOORD_4": 2,
            "TEXCOORD_5": 2,
            "TEXCOORD_6": 2,
            "TEXCOORD_7": 2,
            "TEXCOORD_8": 2,
            "TEXCOORD_9": 2,
            "WEIGHTS_0": 6
          },
          "indices": 3,
          "material": 0,
          "mode": 4
        }
      ]
    }
  ],
  "nodes": [
    {
      "children": [
        1
      ],
      "matrix": [
        1.0,
        0.0,
        0.0,
        0.0,
        0.0,
        2.220446049250313e-16,
        -1.0,
        0.0,
        0.0,
        1.0,
        2.220446049250313e-16,
        0.0,
        0.0,
        0.0,
        0.0,
        1.0
      ],
      "name": "Sketchfab_model"
    },
    {
      "children": [
        2
      ],
      "matrix": [
        0.02539999969303608,
        0.0,
        0.0,
        0.0,
        0.0,
        0.0,
        0.02539999969303608,
        0.0,
        0.0,
        -0.02539999969303608,
        0.0,
        0.0,
        0.0,
        0.0,
        0.0,
        1.0
      ],
      "name": "nick_wilde_costume_basic.fbx"
    },
    {
      "children": [
        3
      ],
      "name": "RootNode"
    },
    {
      "children": [
        4,
        6,
        5
      ],
      "name": "Object_3"
    },
    {
      "children": [
        7
      ],
      "name": "_rootJoint"
    },
    {
      "matrix": [
        1.0,
        -2.117582368135751e-22,
        0.0,
        0.0,
        1.2966452345341597e-38,
        6.123233995736766e-17,
        -1.0,
        0.0,
        2.1175823681357504e-22,
        0.9999999999999998,
        6.123233995736765e-17,
        0.0,
        0.0,
        2.2737367544323206e-13,
        0.0,
        1.0
      ],
      "name": "Object_5"
    },
    {
      "mesh": 0,
      "name": "Object_6",
      "skin": 0
    },
    {
      "children": [
        8,
        12,
        16,
        75
      ],
      "name": "Bip001_Pelvis_00",
      "rotation": [
        0.5000006556510925,
        0.4999995529651642,
        0.49999934434890747,
        0.5000004768371582
      ],
      "scale": [
        0.3937009871006012,
        0.3937009871006012,
        0.3937009871006012
      ],
      "translation": [
        0.07835529744625092,
        113.13420104980469,
        -5.855184078216553
      ]
    },
    {
      "children": [
        9
      ],
      "name": "Bip001_L_Thigh_01",
      "rotation": [
        0.0870288759469986,
        0.9410039782524109,
        0.29435351490974426,
        -0.1424553096294403
      ],
      "translation": [
        -9.1552734375e-05,
        9.250640869140625e-05,
        54.66310119628906
      ]
    },
    {
      "children": [
        10
      ],
      "name": "Bip001_L_Calf_02",
      "rotation": [
        5.173059314245165e-09,
        6.5290413076013465e-09,
        -0.2049277275800705,
        0.9787771105766296
      ],
      "translation": [
        163.66848754882813,
        2.842170943040401e-14,
        -5.340576171875e-05
      ]
    },
    {
      "children": [
        11
      ],
      "name": "Bip001_L_Foot_03",
      "rotation": [
        0.1371145397424698,
        -0.0978592038154602,
        0.09186141192913055,
        0.9814197421073914
      ],
      "translation": [
        99.03886413574219,
        1.52587890625e-05,
        3.0517578125e-05
      ]
    },
    {
      "name": "Bip001_L_Toe0_04",
      "rotation": [
        3.074673315950349e-08,
        -3.0870854317299745e-08,
        0.7071068286895752,
        0.7071068286895752
      ],
      "translation": [
        35.13652801513672,
        104.94700622558594,
        -1.52587890625e-05
      ]
    },
    {
      "children": [
        13
      ],
      "name": "Bip001_R_Thigh_05",
      "rotation": [
        0.0870291218161583,
        0.9410033226013184,
        -0.29435473680496216,
        0.1424570232629776
      ],
      "translation": [
        6.103515625e-05,
        -6.198883056640625e-05,
        -54.66307067871094
      ]
    },
    {
      "children": [
        14
      ],
      "name": "Bip001_R_Calf_06",
      "rotation": [
        1.1854785952891689e-07,
        2.0852253257430675e-08,
        -0.20492801070213318,
        0.9787770509719849
      ],
      "translation": [
        163.66847229003906,
        -7.62939453125e-06,
        2.288818359375e-05
      ]
    },
    {
      "children": [
        15
      ],
      "name": "Bip001_R_Foot_07",
      "rotation": [
        -0.137114480137825,
        0.09785929322242737,
        0.09186138957738876,
        0.9814197421073914
      ],
      "translation": [
        99.03878784179688,
        -2.288818359375e-05,
        0.0
      ]
    },
    {
      "name": "Bip001_R_Toe0_08",
      "rotation": [
        6.667675478411184e-08,
        8.303089771288796e-08,
        0.7071068286895752,
        0.7071068286895752
      ],
      "translation": [
        35.136505126953125,
        104.94699096679688,
        1.4210854715202004e-14
      ]
    },
    {
      "children": [
        17,
        73,
        74
      ],
      "name": "Bip001_Spine_09",
      "rotation": [
        -0.005027864594012499,
        -0.00021076998382341117,
        0.04255406931042671,
        0.9990814924240112
      ],
      "translation": [
        102.39450073242188,
        8.54588508605957,
        0.0010986477136611938
      ]
    },
    {
      "children": [
        18
      ],
      "name": "Bip001_Spine1_010",
      "rotation": [
        1.8770420773250862e-09,
        8.484667546326818e-08,
        -0.025995654985308647,
        0.9996620416641235
      ],
      "translation": [
        124.78433227539063,
        -0.10032272338867188,
        -5.841255187988281e-06
      ]
    },
    {
      "children": [
        19,
        70
      ],
      "name": "Bip001_Spine2_011",
      "rotation": [
        2.5137014691978266e-10,
        3.530229264470108e-08,
        -0.010804204270243645,
        0.9999416470527649
      ],
      "translation": [
        126.16339111328125,
        -0.12653541564941406,
        3.4123659133911133e-06
      ]
    },
    {
      "children": [
        20,
        50,
        60
      ],
      "name": "Bip001_Neck_012",
      "rotation": [
        9.714713478103931e-10,
        -7.901949927724417e-11,
        0.03855449706315994,
        0.9992566108703613
      ],
      "translation": [
        150.98577880859375,
        -3.901137351989746,
        -1.1473894119262695e-05
      ]
    },
    {
      "children": [
        21,
        23,
        25,
        26,
        27,
        28,
        29,
        30,
        31,
        32,
        33,
        34,
        35,
        36,
        37,
        38,
        39,
        42,
        45
      ],
      "name": "Bip001_Head_013",
      "rotation": [
        0.005026205442845821,
        0.00020134446094743907,
        -0.044314056634902954,
        0.9990049600601196
      ],
      "translation": [
        85.74969482421875,
        7.62939453125e-06,
        6.258487701416016e-07
      ]
    },
    {
      "children": [
        22
      ],
      "name": "Bip001_Ear_L01_014",
      "rotation": [
        0.7617396116256714,
        -0.24825738370418549,
        0.4120789170265198,
        -0.4339492619037628
      ],
      "translation": [
        153.0921630859375,
        -77.95745849609375,
        69.78669738769531
      ]
    },
    {
      "name": "Bip001_Ear_L02_015",
      "rotation": [
        8.854948418957065e-08,
        -2.2168596558458376e-07,
        0.021248366683721542,
        0.9997742176055908
      ],
      "translation": [
        81.08935546875,
        -0.08470916748046875,
        -0.0001220703125
      ]
    },
    {
      "children": [
        24
      ],
      "name": "Bip001_Ear_R01_016",
      "rotation": [
        0.76173996925354,
        -0.24825534224510193,
        -0.41208040714263916,
        0.43394842743873596
      ],
      "translation": [
        153.092529296875,
        -77.95702362060547,
        -69.78716278076172
      ]
    },
    {
      "name": "Bip001_Ear_R02_017",
      "rotation": [
        7.132272106247228e-09,
        1.505610924823486e-08,
        0.021248428151011467,
        0.9997742176055908
      ],
      "translation": [
        81.0894775390625,
        -0.08472442626953125,
        -6.103515625e-05
      ]
    },
    {
      "name": "Bip001_CheekR_018",
      "rotation": [
        8.071666668385546e-10,
        -2.0230472728144377e-06,
        0.7073889374732971,
        0.706824541091919
      ],
      "translation": [
        66.07196044921875,
        39.03742980957031,
        112.59870147705078
      ]
    },
    {
      "name": "Bip001_CheekL_019",
      "rotation": [
        8.071666668385546e-10,
        -2.0230472728144377e-06,
        0.7073889374732971,
        0.706824541091919
      ],
      "translation": [
        66.08404541015625,
        39.0377197265625,
        -114.14118194580078
      ]
    },
    {
      "name": "Bip001_TeethUpper_020",
      "rotation": [
        -3.054823537240736e-06,
        -3.0143396543280687e-06,
        0.7073889374732971,
        0.706824541091919
      ],
      "translation": [
        49.0042724609375,
        117.19080352783203,
        -0.2131778746843338
      ]
    },
    {
      "name": "Bip001_EyelidBottomL_021",
      "rotation": [
        0.6906198859214783,
        0.6900716423988342,
        -0.15298275649547577,
        0.15310655534267426
      ],
      "translation": [
        91.391357421875,
        72.65030670166016,
        -61.832218170166016
      ]
    },
    {
      "name": "Bip001_EyelidTopL_022",
      "rotation": [
        3.782468027679897e-08,
        -1.3896923292122665e-06,
        0.5376360416412354,
        0.8431770205497742
      ],
      "translation": [
        114.014404296875,
        20.973543167114258,
        -57.132450103759766
      ]
    },
    {
      "name": "Bip001_EyelidTopR_023",
      "rotation": [
        3.782468027679897e-08,
        -1.3896923292122665e-06,
        0.5376360416412354,
        0.8431770205497742
      ],
      "translation": [
        114.01446533203125,
        20.973241806030273,
        57.13256072998047
      ]
    },
    {
      "name": "Bip001_EyelidBottomR_024",
      "rotation": [
        0.6906198859214783,
        0.6900707483291626,
        0.15298669040203094,
        -0.15310654044151306
      ],
      "translation": [
        91.39129638671875,
        72.64997863769531,
        61.40631866455078
      ]
    },
    {
      "name": "Bip001_LipUpperMidL_025",
      "rotation": [
        0.7073877453804016,
        0.7068257331848145,
        2.061352915916359e-06,
        6.925795759116227e-08
      ],
      "translation": [
        56.426513671875,
        135.8917999267578,
        46.45848846435547
      ]
    },
    {
      "name": "Bip001_LipUpperMidR_026",
      "rotation": [
        0.7073877453804016,
        0.7068257331848145,
        1.8927006522062584e-06,
        6.925573359239934e-08
      ],
      "translation": [
        56.42657470703125,
        135.89199829101563,
        -46.88404083251953
      ]
    },
    {
      "name": "Bip001_Nose_027",
      "rotation": [
        8.071666668385546e-10,
        -2.0230472728144377e-06,
        0.7073889374732971,
        0.706824541091919
      ],
      "translation": [
        78.41204833984375,
        171.64297485351563,
        0.0002269744873046875
      ]
    },
    {
      "name": "Bip001_EyeL_028",
      "rotation": [
        0.7073877453804016,
        0.7068257331848145,
        1.8927006522062584e-06,
        6.925573359239934e-08
      ],
      "translation": [
        111.47174072265625,
        33.695106506347656,
        43.296939849853516
      ]
    },
    {
      "name": "Bip001_EyeR_029",
      "rotation": [
        0.7073877453804016,
        0.7068257331848145,
        2.061352915916359e-06,
        6.925795759116227e-08
      ],
      "translation": [
        111.47161865234375,
        33.69535827636719,
        -43.72304153442383
      ]
    },
    {
      "name": "Bip001_LipCornerL_030",
      "rotation": [
        8.071666668385546e-10,
        -2.0230472728144377e-06,
        0.7073889374732971,
        0.706824541091919
      ],
      "translation": [
        50.36376953125,
        72.56067657470703,
        70.17999267578125
      ]
    },
    {
      "name": "Bip001_LipCornerR_031",
      "rotation": [
        8.071666668385546e-10,
        -2.0230472728144377e-06,
        0.7073889374732971,
        0.706824541091919
      ],
      "translation": [
        50.36358642578125,
        72.56105041503906,
        -70.17959594726563
      ]
    },
    {
      "children": [
        40,
        41
      ],
      "name": "Bip001_BrowMidL_032",
      "rotation": [
        0.7073877453804016,
        0.7068257331848145,
        2.061352915916359e-06,
        6.925795759116227e-08
      ],
      "translation": [
        183.523681640625,
        56.236778259277344,
        63.57315444946289
      ]
    },
    {
      "name": "Bip001_BrowInnerL_033",
      "rotation": [
        7.695978559268265e-22,
        -9.62563565637918e-14,
        2.910383739562761e-11,
        1.0
      ],
      "translation": [
        23.245437622070313,
        5.4776611328125,
        36.16276168823242
      ]
    },
    {
      "name": "Bip001_BrowOuterL_034",
      "rotation": [
        7.695978559268265e-22,
        -9.62563565637918e-14,
        2.910383739562761e-11,
        1.0
      ],
      "translation": [
        -7.859050750732422,
        -25.04443359375,
        -29.288013458251953
      ]
    },
    {
      "children": [
        43,
        44
      ],
      "name": "Bip001_BrowMidR_035",
      "rotation": [
        0.7073877453804016,
        0.7068257331848145,
        1.8927006522062584e-06,
        6.925573359239934e-08
      ],
      "translation": [
        183.52392578125,
        56.23711395263672,
        -63.999149322509766
      ]
    },
    {
      "name": "Bip001_BrowInnerR_036",
      "rotation": [
        -2.2737370254828637e-13,
        5.551117240708151e-16,
        2.910383739562761e-11,
        1.0
      ],
      "translation": [
        23.245452880859375,
        4.8717041015625,
        -32.94163513183594
      ]
    },
    {
      "name": "Bip001_BrowOuterR_037",
      "rotation": [
        -2.2737370254828637e-13,
        5.551117240708151e-16,
        2.910383739562761e-11,
        1.0
      ],
      "translation": [
        -7.859043121337891,
        -24.7735595703125,
        28.802780151367188
      ]
    },
    {
      "children": [
        46,
        47,
        48,
        49
      ],
      "name": "Bip001_Jaw_038",
      "rotation": [
        8.070460411069291e-10,
        -2.0230472728144377e-06,
        0.7073889374732971,
        0.7068244814872742
      ],
      "translation": [
        37.12261962890625,
        57.09185791015625,
        -0.2133474349975586
      ]
    },
    {
      "name": "Bip001_LipLowerEnd_039",
      "rotation": [
        -3.670420097747993e-22,
        4.5519154174026785e-14,
        2.910383739562761e-11,
        1.0
      ],
      "translation": [
        123.93897247314453,
        4.545166015625,
        0.2132910043001175
      ]
    },
    {
      "name": "Bip001_TeethLower_040",
      "rotation": [
        -3.670420097747993e-22,
        4.5519154174026785e-14,
        2.910383739562761e-11,
        1.0
      ],
      "translation": [
        50.88348388671875,
        -14.881591796875,
        0.21292833983898163
      ]
    },
    {
      "name": "Bip001_LipLowerMidL_041",
      "rotation": [
        0.9999997019767761,
        -0.0007963180541992188,
        -2.5255240607147122e-11,
        -4.371126749447285e-08
      ],
      "translation": [
        65.92913055419922,
        -1.94854736328125,
        45.40713882446289
      ]
    },
    {
      "name": "Bip001_LipLowerMidR_042",
      "rotation": [
        0.9999997019767761,
        -0.0007963180541992188,
        -8.41772731519086e-08,
        -4.3778278779882385e-08
      ],
      "translation": [
        65.9290542602539,
        -1.94818115234375,
        -44.980140686035156
      ]
    },
    {
      "children": [
        51
      ],
      "name": "Bip001_L_Clavicle_043",
      "rotation": [
        0.3993262052536011,
        -0.015567932277917862,
        0.9159810543060303,
        0.03570627048611641
      ],
      "translation": [
        -41.23193359375,
        -8.347221374511719,
        50.021697998046875
      ]
    },
    {
      "children": [
        52
      ],
      "name": "Bip001_L_UpperArm_044",
      "rotation": [
        0.028504718095064163,
        0.06326451897621155,
        0.09702561795711517,
        0.9928600788116455
      ],
      "translation": [
        71.461669921875,
        1.9073486328125e-06,
        -6.103515625e-05
      ]
    },
    {
      "children": [
        53
      ],
      "name": "Bip001_L_Forearm_045",
      "rotation": [
        8.023432940262865e-08,
        3.106348742676346e-07,
        -0.030315052717924118,
        0.999540388584137
      ],
      "translation": [
        143.42605590820313,
        -9.1552734375e-05,
        -0.000244140625
      ]
    },
    {
      "children": [
        54,
        56,
        58
      ],
      "name": "Bip001_L_Hand_046",
      "rotation": [
        -0.7066819667816162,
        0.06578709930181503,
        0.014266173355281353,
        0.7043218016624451
      ],
      "translation": [
        104.91458129882813,
        1.52587890625e-05,
        -0.00018310546875
      ]
    },
    {
      "children": [
        55
      ],
      "name": "Bip001_L_Finger0_047",
      "rotation": [
        0.5734028220176697,
        0.3957946002483368,
        -0.002622912172228098,
        0.7173206806182861
      ],
      "translation": [
        31.3138427734375,
        11.81329345703125,
        -28.55176544189453
      ]
    },
    {
      "name": "Bip001_L_Finger01_048",
      "rotation": [
        -0.0010124366963282228,
        -0.026455406099557877,
        0.11843626946210861,
        0.9926086664199829
      ],
      "translation": [
        40.450714111328125,
        3.0517578125e-05,
        5.684341886080802e-14
      ]
    },
    {
      "children": [
        57
      ],
      "name": "Bip001_L_Finger1_049",
      "rotation": [
        0.03257426992058754,
        0.16852949559688568,
        0.04656801372766495,
        0.9840570092201233
      ],
      "translation": [
        86.4566650390625,
        2.25701904296875,
        -23.956466674804688
      ]
    },
    {
      "name": "Bip001_L_Finger11_050",
      "rotation": [
        2.015089677342985e-07,
        5.9405167007753334e-08,
        0.10820116102695465,
        0.9941291213035583
      ],
      "translation": [
        33.987457275390625,
        0.00018310546875,
        -2.288818359375e-05
      ]
    },
    {
      "children": [
        59
      ],
      "name": "Bip001_L_Finger2_051",
      "rotation": [
        -0.04809453710913658,
        0.05348852649331093,
        0.06466358155012131,
        0.9953112602233887
      ],
      "translation": [
        90.20510864257813,
        2.949005126953125,
        10.818458557128906
      ]
    },
    {
      "name": "Bip001_L_Finger21_052",
      "rotation": [
        -7.78230146991632e-10,
        7.269269985954452e-08,
        0.04912816360592842,
        0.9987925887107849
      ],
      "translation": [
        34.87901306152344,
        0.0,
        3.814697265625e-06
      ]
    },
    {
      "children": [
        61
      ],
      "name": "Bip001_R_Clavicle_053",
      "rotation": [
        -0.39932623505592346,
        0.015565390698611736,
        0.9159810543060303,
        0.03570710867643356
      ],
      "translation": [
        -41.23199462890625,
        -8.346954345703125,
        -50.02165603637695
      ]
    },
    {
      "children": [
        62
      ],
      "name": "Bip001_R_UpperArm_054",
      "rotation": [
        -0.03581970930099487,
        -0.06312382221221924,
        0.0901331901550293,
        0.9932816028594971
      ],
      "translation": [
        71.46160888671875,
        -1.239776611328125e-05,
        6.103515625e-05
      ]
    },
    {
      "children": [
        63
      ],
      "name": "Bip001_R_Forearm_055",
      "rotation": [
        -3.0523632510437437e-09,
        -2.2352763551225507e-07,
        -0.03031504899263382,
        0.999540388584137
      ],
      "translation": [
        143.426025390625,
        0.0,
        0.0
      ]
    },
    {
      "children": [
        64,
        66,
        68
      ],
      "name": "Bip001_R_Hand_056",
      "rotation": [
        0.706682026386261,
        -0.06578700244426727,
        0.014266044832766056,
        0.7043218016624451
      ],
      "translation": [
        104.91455078125,
        -7.62939453125e-06,
        0.0
      ]
    },
    {
      "children": [
        65
      ],
      "name": "Bip001_R_Finger0_057",
      "rotation": [
        -0.5734027028083801,
        -0.39579489827156067,
        -0.002623087028041482,
        0.7173206210136414
      ],
      "translation": [
        31.313796997070313,
        11.813232421875,
        28.551742553710938
      ]
    },
    {
      "name": "Bip001_R_Finger01_058",
      "rotation": [
        0.0010125980479642749,
        0.02645532228052616,
        0.11843635141849518,
        0.9926086664199829
      ],
      "translation": [
        40.450592041015625,
        -1.52587890625e-05,
        -5.684341886080802e-14
      ]
    },
    {
      "children": [
        67
      ],
      "name": "Bip001_R_Finger1_059",
      "rotation": [
        -0.03257434815168381,
        -0.16852962970733643,
        0.046567901968955994,
        0.9840570688247681
      ],
      "translation": [
        86.45671081542969,
        2.2569580078125,
        23.956497192382813
      ]
    },
    {
      "name": "Bip001_R_Finger11_060",
      "rotation": [
        -2.1202785660534573e-07,
        -2.5540910542076745e-07,
        0.10820117592811584,
        0.9941291213035583
      ],
      "translation": [
        33.98750305175781,
        -6.103515625e-05,
        7.62939453125e-06
      ]
    },
    {
      "children": [
        69
      ],
      "name": "Bip001_R_Finger2_061",
      "rotation": [
        0.04809461906552315,
        -0.05348863825201988,
        0.06466353684663773,
        0.9953112602233887
      ],
      "translation": [
        90.20500183105469,
        2.948883056640625,
        -10.818511962890625
      ]
    },
    {
      "name": "Bip001_R_Finger21_062",
      "rotation": [
        1.63640603290105e-08,
        -2.3790197190010076e-07,
        0.049128174781799316,
        0.9987925887107849
      ],
      "translation": [
        34.878997802734375,
        6.103515625e-05,
        2.288818359375e-05
      ]
    },
    {
      "children": [
        71
      ],
      "name": "Bip001_Tie_063",
      "rotation": [
        -0.0004490175051614642,
        -0.001071674283593893,
        0.9999001622200012,
        0.01408263761550188
      ],
      "translation": [
        86.7603759765625,
        76.8364486694336,
        -0.42591917514801025
      ]
    },
    {
      "children": [
        72
      ],
      "name": "Bip001_Tie02_064",
      "rotation": [
        -2.401065457569018e-10,
        -2.574980159653073e-19,
        -1.734723475976807e-18,
        1.0
      ],
      "translation": [
        123.23724365234375,
        -0.0953826904296875,
        -2.9802322387695313e-05
      ]
    },
    {
      "name": "Bip001_Tie03_065",
      "rotation": [
        -2.401065457569018e-10,
        -1.2874890458507708e-19,
        9.313223525708736e-10,
        1.0
      ],
      "translation": [
        119.79351806640625,
        -0.08158111572265625,
        -6.747245788574219e-05
      ]
    },
    {
      "name": "Bip001_ShirtLeft_066",
      "rotation": [
        0.005025914870202541,
        0.00020818218763452023,
        -0.04215626046061516,
        0.9990983605384827
      ],
      "translation": [
        -52.416473388671875,
        1.4217147827148438,
        108.59290313720703
      ]
    },
    {
      "name": "Bip001_ShirtRight_067",
      "rotation": [
        0.005025914870202541,
        0.00020818218763452023,
        -0.04215626046061516,
        0.9990983605384827
      ],
      "translation": [
        -52.41650390625,
        1.4223175048828125,
        -108.59329223632813
      ]
    },
    {
      "children": [
        76
      ],
      "name": "Bip001_Tail_068",
      "rotation": [
        1.1067077139159665e-06,
        -4.430404487720807e-07,
        0.9656882882118225,
        -0.25970402359962463
      ],
      "translation": [
        26.562347412109375,
        -100.74659729003906,
        0.00018756091594696045
      ]
    },
    {
      "children": [
        77
      ],
      "name": "Bip001_Tail1_069",
      "rotation": [
        4.514654960985354e-08,
        -9.81987000159279e-07,
        0.2868346571922302,
        0.957980215549469
      ],
      "translation": [
        161.85560607910156,
        -0.112030029296875,
        2.518296241760254e-06
      ]
    },
    {
      "name": "Bip001_Tail2_070",
      "rotation": [
        2.3534147430837038e-07,
        -1.1717067991412478e-06,
        0.12682759761810303,
        0.9919247627258301
      ],
      "translation": [
        168.39669799804688,
        -0.1226959228515625,
        6.705522537231445e-07
      ]
    }
  ],
  "samplers": [
    {
      "magFilter": 9729,
      "minFilter": 9987,
      "wrapS": 10497,
      "wrapT": 10497
    }
  ],
  "scene": 0,
  "scenes": [
    {
      "name": "Sketchfab_Scene",
      "nodes": [
        0
      ]
    }
  ],
  "skins": [
    {
      "inverseBindMatrices": 4,
      "joints": [
        4,
        7,
        8,
        9,
        10,
        11,
        12,
        13,
        14,
        15,
        16,
        17,
        18,
        19,
        20,
        21,
        22,
        23,
        24,
        25,
        26,
        27,
        28,
        29,
        30,
        31,
        32,
        33,
        34,
        35,
        36,
        37,
        38,
        39,
        40,
        41,
        42,
        43,
        44,
        45,
        46,
        47,
        48,
        49,
        50,
        51,
        52,
        53,
        54,
        55,
        56,
        57,
        58,
        59,
        60,
        61,
        62,
        63,
        64,
        65,
        66,
        67,
        68,
        69,
        70,
        71,
        72,
        73,
        74,
        75,
        76,
        77
      ],
      "skeleton": 4
    }
  ],
  "textures": [
    {
      "sampler": 0,
      "source": 0
    }
  ]
}
