{
  "accessors": [
    {
      "bufferView": 3,
      "componentType": 5126,
      "count": 3412,
      "max": [
        0.19721117615699768,
        1.7970727682113647,
        0.1654244363307953
      ],
      "min": [
        -0.1528976857662201,
        1.0816302299499512,
        -0.26677602529525757
      ],
      "type": "VEC3"
    },
    {
      "bufferView": 3,
      "byteOffset": 40944,
      "componentType": 5126,
      "count": 3412,
      "max": [
        0.9998767971992493,
        0.9988721013069153,
        1.0
      ],
      "min": [
        -0.9998773336410522,
        -0.9998725056648254,
        -1.0
      ],
      "type": "VEC3"
    },
    {
      "bufferView": 2,
      "componentType": 5126,
      "count": 3412,
      "max": [
        0.994900107383728,
        0.9934090375900269
      ],
      "min": [
        0.010481961071491241,
        0.008990883827209473
      ],
      "type": "VEC2"
    },
    {
      "bufferView": 1,
      "componentType": 5125,
      "count": 13383,
      "type": "SCALAR"
    },
    {
      "bufferView": 3,
      "byteOffset": 81888,
      "componentType": 5126,
      "count": 9135,
      "max": [
        0.44371986389160156,
        1.3605214357376099,
        0.1724790781736374
      ],
      "min": [
        -0.42142051458358765,
        0.2347833216190338,
        -0.21750858426094055
      ],
      "type": "VEC3"
    },
    {
      "bufferView": 3,
      "byteOffset": 191508,
      "componentType": 5126,
      "count": 9135,
      "max": [
        0.9998769760131836,
        0.9998763799667358,
        1.0
      ],
      "min": [
        -0.9998771548271179,
        -0.9998762011528015,
        -1.0
      ],
      "type": "VEC3"
    },
    {
      "bufferView": 2,
      "byteOffset": 27296,
      "componentType": 5126,
      "count": 9135,
      "max": [
        0.994900107383728,
        0.9973000288009644
      ],
      "min": [
        0.0027000000700354576,
        0.005099892616271973
      ],
      "type": "VEC2"
    },
    {
      "bufferView": 1,
      "byteOffset": 53532,
      "componentType": 5125,
      "count": 34746,
      "type": "SCALAR"
    },
    {
      "bufferView": 3,
      "byteOffset": 301128,
      "componentType": 5126,
      "count": 369,
      "max": [
        0.1577841192483902,
        1.3573012351989746,
        0.11748556792736053
      ],
      "min": [
        -0.11441753804683685,
        1.2607762813568115,
        0.038854435086250305
      ],
      "type": "VEC3"
    },
    {
      "bufferView": 3,
      "byteOffset": 305556,
      "componentType": 5126,
      "count": 369,
      "max": [
        0.997862696647644,
        0.9653811454772949,
        0.9994917511940002
      ],
      "min": [
        -0.9978631734848022,
        -0.96538245677948,
        -0.9994917511940002
      ],
      "type": "VEC3"
    },
    {
      "bufferView": 2,
      "byteOffset": 100376,
      "componentType": 5126,
      "count": 369,
      "max": [
        0.9754451513290405,
        0.9739541411399841
      ],
      "min": [
        0.022154904901981354,
        0.08291953802108765
      ],
      "type": "VEC2"
    },
    {
      "bufferView": 1,
      "byteOffset": 192516,
      "componentType": 5125,
      "count": 1434,
      "type": "SCALAR"
    },
    {
      "bufferView": 5,
      "componentType": 5126,
      "count": 115,
      "max": [
        118.96017456054688,
        0.9997823238372803,
        0.9506304264068604,
        0.0,
        0.9703029990196228,
        118.96015167236328,
        0.9998685717582703,
        0.0,
        0.999896764755249,
        0.9998969435691833,
        118.96015167236328,
        0.0,
        1.0419414043426514,
        1.094758152961731,
        1.285043716430664,
        1.0
      ],
      "min": [
        -0.9999052286148071,
        -0.9997187256813049,
        -0.999782383441925,
        0.0,
        -0.999868631362915,
        -0.999851644039154,
        -0.9994570016860962,
        0.0,
        -0.9998291730880737,
        -0.6987172961235046,
        -0.9998289346694946,
        0.0,
        -1.0419411659240723,
        -1.7324621677398682,
        -1.2850401401519775,
        1.0
      ],
      "type": "MAT4"
    },
    {
      "bufferView": 0,
      "componentType": 5123,
      "count": 3412,
      "type": "VEC4"
    },
    {
      "bufferView": 4,
      "componentType": 5126,
      "count": 3412,
      "max": [
        1.0,
        0.4838709533214569,
        0.22580644488334656,
        0.0
      ],
      "min": [
        0.4516128897666931,
        0.0,
        0.0,
        0.0
      ],
      "type": "VEC4"
    },
    {
      "bufferView": 0,
      "byteOffset": 27296,
      "componentType": 5123,
      "count": 9135,
      "type": "VEC4"
    },
    {
      "bufferView": 4,
      "byteOffset": 54592,
      "componentType": 5126,
      "count": 9135,
      "max": [
        1.0,
        0.4838709533214569,
        0.32258063554763794,
        0.0
      ],
      "min": [
        0.35483869910240173,
        0.0,
        0.0,
        0.0
      ],
      "type": "VEC4"
    },
    {
      "bufferView": 0,
      "byteOffset": 100376,
      "componentType": 5123,
      "count": 369,
      "type": "VEC4"
    },
    {
      "bufferView": 4,
      "byteOffset": 200752,
      "componentType": 5126,
      "count": 369,
      "max": [
        1.0,
        0.4838709533214569,
        0.0,
        0.0
      ],
      "min": [
        0.5161290168762207,
        0.0,
        0.0,
        0.0
      ],
      "type": "VEC4"
    }
  ],
  "asset": {
    "extras": {
      "author": "Guilherme Navarro (https://sketchfab.com/guinavarro.al)",
      "license": "CC-BY-4.0 (http://creativecommons.org/licenses/by/4.0/)",
      "source": "https://sketchfab.com/3d-models/judy-hopps-zootopia-8655d22f526a44b59db9f48917ab3635",
      "title": "Judy Hopps (Zootopia)"
    },
    "generator": "Sketchfab-17.8.0",
    "version": "2.0"
  },
  "bufferViews": [
    {
      "buffer": 0,
      "byteLength": 103328,
      "byteStride": 8,
      "name": "shortBufferViews",
      "target": 34962
    },
    {
      "buffer": 0,
      "byteLength": 198252,
      "byteOffset": 103328,
      "name": "floatBufferViews",
      "target": 34963
    },
    {
      "buffer": 0,
      "byteLength": 103328,
      "byteOffset": 301580,
      "byteStride": 8,
      "name": "floatBufferViews",
      "target": 34962
    },
    {
      "buffer": 0,
      "byteLength": 309984,
      "byteOffset": 404908,
      "byteStride": 12,
      "name": "floatBufferViews",
      "target": 34962
    },
    {
      "buffer": 0,
      "byteLength": 206656,
      "byteOffset": 714892,
      "byteStride": 16,
      "name": "floatBufferViews",
      "target": 34962
    },
    {
      "buffer": 0,
      "byteLength": 7360,
      "byteOffset": 921548,
      "name": "floatBufferViews"
    }
  ],
  "buffers": [
    {
      "byteLength": 928908,
      "uri": "scene.bin"
    }
  ],
  "images": [
    {
      "uri": "textures/Judy_A_01_Face.001_baseColor.png"
    },
    {
      "uri": "textures/Judy_A_01_Cloth.001_baseColor.png"
    },
    {
      "uri": "textures/Judy_A_01_Eyelash.001_baseColor.png"
    }
  ],
  "materials": [
    {
      "doubleSided": true,
      "name": "Judy_A_01_Face.001",
      "pbrMetallicRoughness": {
        "baseColorTexture": {
          "index": 0
        },
        "metallicFactor": 0.0,
        "roughnessFactor": 0.9479723661411964
      }
    },
    {
      "doubleSided": true,
      "name": "Judy_A_01_Cloth.001",
      "pbrMetallicRoughness": {
        "baseColorTexture": {
          "index": 1
        },
        "metallicFactor": 0.0,
        "roughnessFactor": 0.9479723661411964
      }
    },
    {
      "alphaMode": "BLEND",
      "doubleSided": true,
      "name": "Judy_A_01_Eyelash.001",
      "pbrMetallicRoughness": {
        "baseColorTexture": {
          "index": 2
        },
        "metallicFactor": 0.0,
        "roughnessFactor": 0.9479723661411964
      }
    }
  ],
  "meshes": [
    {
      "name": "Object_11_Judy_A_01_Face.001_0",
      "primitives": [
        {
          "attributes": {
            "JOINTS_0": 13,
            "NORMAL": 1,
            "POSITION": 0,
            "TEXCOORD_0": 2,
            "WEIGHTS_0": 14
          },
          "indices": 3,
          "material": 0,
          "mode": 4
        }
      ]
    },
    {
      "name": "Object_10_Judy_A_01_Cloth.001_0",
      "primitives": [
        {
          "attributes": {
            "JOINTS_0": 15,
            "NORMAL": 5,
            "POSITION": 4,
            "TEXCOORD_0": 6,
            "WEIGHTS_0": 16
          },
          "indices": 7,
          "material": 1,
          "mode": 4
        }
      ]
    },
    {
      "name": "Object_12_Judy_A_01_Eyelash.001_0",
      "primitives": [
        {
          "attributes": {
            "JOINTS_0": 17,
            "NORMAL": 9,
            "POSITION": 8,
            "TEXCOORD_0": 10,
            "WEIGHTS_0": 18
          },
          "indices": 11,
          "material": 2,
          "mode": 4
        }
      ]
    }
  ],
  "nodes": [
    {
      "children": [
        1
      ],
      "matrix": [
        -1.0,
        -6.290011496532519e-32,
        2.832769343193999e-16,
        0.0,
        2.832769343193999e-16,
        -2.220446049250313e-16,
        1.0,
        0.0,
        0.0,
        1.0,
        2.220446049250313e-16,
        0.0,
        0.0,
        0.0,
        0.0,
        1.0
      ],
      "name": "Sketchfab_model"
    },
    {
      "children": [
        2
      ],
      "matrix": [
        0.009999999776482582,
        0.0,
        0.0,
        0.0,
        0.0,
        0.0,
        0.009999999776482582,
        0.0,
        0.0,
        -0.009999999776482582,
        0.0,
        0.0,
        0.0,
        0.0,
        0.0,
        1.0
      ],
      "name": "3684a32995684998a546194374d4d070.fbx"
    },
    {
      "children": [
        3
      ],
      "name": "RootNode"
    },
    {
      "children": [
        4
      ],
      "matrix": [
        7928.724178171236,
        -124.60325439782042,
        -124.60323121531019,
        0.0,
        124.60323844297423,
        -0.9780271205342621,
        7929.702665382791,
        0.0,
        -124.60323182685495,
        -7929.702665252632,
        0.9799234939312536,
        0.0,
        0.0,
        0.0,
        0.0,
        1.0
      ],
      "name": "Sketchfab_model"
    },
    {
      "children": [
        5
      ],
      "matrix": [
        0.010000001639127731,
        -7.60813753577366e-12,
        1.6889596939799626e-11,
        0.0,
        -1.6889600659248793e-11,
        -2.8213004168476382e-09,
        0.010000002570449909,
        0.0,
        -7.60813347927436e-12,
        -0.010000002570449909,
        -2.8213004168476382e-09,
        0.0,
        0.0,
        0.0,
        0.0,
        1.0
      ],
      "name": "Judy_A_01.fbx"
    },
    {
      "children": [
        6
      ],
      "matrix": [
        0.9999997615814209,
        3.725290297899485e-09,
        2.7939677238464364e-09,
        0.0,
        -3.725290519944143e-09,
        0.9999998211860657,
        -5.2583805365546965e-18,
        0.0,
        -2.7939677238464364e-09,
        -5.149963112701129e-18,
        0.9999997615814209,
        0.0,
        0.0,
        0.0,
        0.0,
        1.0
      ],
      "name": "Object_2"
    },
    {
      "children": [
        7
      ],
      "matrix": [
        0.9999997615814209,
        3.725290295673058e-09,
        1.862645367806115e-09,
        0.0,
        -3.7252902956866106e-09,
        0.9999997615814209,
        7.275954984993157e-12,
        0.0,
        -1.862645256756668e-09,
        -7.275961490208294e-12,
        0.9999997019767761,
        0.0,
        0.0,
        0.0,
        0.0,
        1.0
      ],
      "name": "RootNode"
    },
    {
      "children": [
        8
      ],
      "matrix": [
        -1.4999998807906938,
        2.2649368064665374e-07,
        -9.446241393262782e-10,
        0.0,
        -2.2649364464644527e-07,
        -1.4999996423721147,
        -7.276028358375177e-12,
        0.0,
        -9.446239902809415e-10,
        -7.2758857241210014e-12,
        1.4999996423721313,
        0.0,
        0.0,
        0.0,
        0.0,
        1.0
      ],
      "name": "Judy_A_01"
    },
    {
      "children": [
        9
      ],
      "matrix": [
        0.9999997615814209,
        -1.7359974806970725e-09,
        5.779839662434227e-10,
        0.0,
        5.779835453675004e-10,
        -2.821299355321441e-07,
        -0.9999998807906707,
        0.0,
        1.7359979541842447e-09,
        0.9999999403953155,
        -2.821299523484007e-07,
        0.0,
        0.0,
        0.0,
        0.0,
        1.0
      ],
      "name": "Root"
    },
    {
      "children": [
        10
      ],
      "matrix": [
        0.9999998211860657,
        6.93889390390723e-18,
        9.313225225911386e-10,
        0.0,
        -6.945670167864044e-18,
        0.9999998211860657,
        7.275957126292448e-12,
        0.0,
        -9.313225781022967e-10,
        -7.275957559973372e-12,
        0.9999998807907104,
        0.0,
        0.0,
        0.0,
        0.0,
        1.0
      ],
      "name": "Object_7"
    },
    {
      "children": [
        11,
        13,
        15,
        17,
        12,
        14,
        16
      ],
      "name": "Object_10"
    },
    {
      "children": [
        18
      ],
      "name": "_rootJoint"
    },
    {
      "matrix": [
        -118.93080246732261,
        1.869030274825786,
        1.8690475027540172,
        0.0,
        1.869046210993937,
        -0.014746578540955022,
        118.94546671295566,
        0.0,
        1.8690309304917723,
        118.94546670954945,
        -0.014622385871505897,
        0.0,
        3.651390013234925e-15,
        -4.584153787812814e-17,
        4.56321162409651e-13,
        1.0
      ],
      "name": "Object_12"
    },
    {
      "mesh": 0,
      "name": "Object_13",
      "skin": 0
    },
    {
      "matrix": [
        -118.93080246732261,
        1.869030274825786,
        1.8690475027540172,
        0.0,
        1.869046210993937,
        -0.014746578540955022,
        118.94546671295566,
        0.0,
        1.8690309304917723,
        118.94546670954945,
        -0.014622385871505897,
        0.0,
        3.651390013234925e-15,
        -4.584153787812814e-17,
        4.56321162409651e-13,
        1.0
      ],
      "name": "Object_14"
    },
    {
      "mesh": 1,
      "name": "Object_15",
      "skin": 0
    },
    {
      "matrix": [
        -118.93080246732261,
        1.869030274825786,
        1.8690475027540172,
        0.0,
        1.869046210993937,
        -0.014746578540955022,
        118.94546671295566,
        0.0,
        1.8690309304917723,
        118.94546670954945,
        -0.014622385871505897,
        0.0,
        3.651390013234925e-15,
        -4.584153787812814e-17,
        4.56321162409651e-13,
        1.0
      ],
      "name": "Object_16"
    },
    {
      "mesh": 2,
      "name": "Object_17",
      "skin": 0
    },
    {
      "children": [
        19
      ],
      "name": "_rootJoint_00",
      "rotation": [
        -1.4551914361005114e-11,
        2.3968344070305902e-18,
        -1.393061443977217e-09,
        1.0
      ],
      "scale": [
        1.0,
        0.9999998807907104,
        1.0
      ]
    },
    {
      "children": [
        20,
        129
      ],
      "name": "Bip001_02_01",
      "rotation": [
        0.7071068286895752,
        1.3123121256342074e-08,
        1.3050208025333632e-08,
        0.7071068286895752
      ],
      "scale": [
        0.9999999403953552,
        0.9999999403953552,
        1.0
      ],
      "translation": [
        -1.7349943776274182e-18,
        0.0,
        3.372199418921437e-36
      ]
    },
    {
      "children": [
        21,
        125
      ],
      "name": "Bip001 Pelvis_04_02",
      "rotation": [
        6.812825859014993e-07,
        0.9990698099136353,
        -0.043122075498104095,
        -1.29817669858312e-06
      ],
      "scale": [
        1.0000001192092896,
        1.000000238418579,
        0.9999999403953552
      ],
      "translation": [
        -3.790400437964081e-09,
        0.7152901291847229,
        0.03548189252614975
      ]
    },
    {
      "children": [
        22,
        29,
        36
      ],
      "name": "Bip001 Spine_05_03",
      "rotation": [
        -1.944043333423906e-06,
        -0.013331976719200611,
        0.9999111294746399,
        6.456837695623108e-07
      ],
      "scale": [
        1.0000001192092896,
        1.0000001192092896,
        1.0000001192092896
      ],
      "translation": [
        7.320386430365033e-08,
        0.09661699831485748,
        0.018625808879733086
      ]
    },
    {
      "children": [
        23
      ],
      "name": "Bip001 L Thigh_06_04",
      "rotation": [
        0.06321222335100174,
        -0.0033225181978195906,
        -0.0027329549193382263,
        0.9979908466339111
      ],
      "scale": [
        0.9999999403953552,
        0.9999998807907104,
        0.9999997019767761
      ],
      "translation": [
        -0.07428047806024551,
        0.09707924723625183,
        -0.016043389216065407
      ]
    },
    {
      "children": [
        24
      ],
      "name": "Bip001 L Calf_07_05",
      "rotation": [
        -0.10525988787412643,
        -4.151605708102579e-07,
        3.135530590725466e-08,
        0.994444727897644
      ],
      "scale": [
        0.9999999403953552,
        1.0000001192092896,
        0.9999998807907104
      ],
      "translation": [
        5.238689482212067e-09,
        0.2449072152376175,
        1.3387762010097504e-09
      ]
    },
    {
      "children": [
        25
      ],
      "name": "Bip001 L Foot_08_06",
      "rotation": [
        0.5474805235862732,
        0.44948557019233704,
        0.548281729221344,
        0.44453924894332886
      ],
      "scale": [
        0.9999998807907104,
        0.9999999403953552,
        1.0
      ],
      "translation": [
        3.6088749766349792e-09,
        0.18460772931575775,
        -5.413312464952469e-09
      ]
    },
    {
      "children": [
        26
      ],
      "name": "Bip001 L Toe0_09_07",
      "rotation": [
        0.4999997317790985,
        -0.5000002980232239,
        -0.4999997317790985,
        0.5000002384185791
      ],
      "scale": [
        1.0,
        0.9999998807907104,
        1.0
      ],
      "translation": [
        0.04602925479412079,
        0.11739954352378845,
        -1.4230427041184157e-06
      ]
    },
    {
      "children": [
        27
      ],
      "name": "Bip001 L Toe0Nub_010_08",
      "rotation": [
        0.0017458057263866067,
        -0.0016056649619713426,
        -0.7078927159309387,
        0.7063159942626953
      ],
      "scale": [
        1.0,
        1.0,
        0.9999998211860657
      ],
      "translation": [
        0.061286184936761856,
        0.0720057263970375,
        -0.005179883912205696
      ]
    },
    {
      "children": [
        28
      ],
      "name": "Bip001 L Toe0Nub_010_end_09",
      "rotation": [
        -2.3283153183228933e-10,
        -1.625494405743666e-09,
        2.5670299219626713e-09,
        1.0
      ],
      "translation": [
        1.2323312943013365e-14,
        0.09469775855541229,
        -3.987672414496046e-09
      ]
    },
    {
      "name": "Bip001 L Toe0Nub_010_end_end_092",
      "rotation": [
        -2.710505431213761e-20,
        -2.3344228026328517e-18,
        -6.327465685285594e-38,
        1.0
      ],
      "translation": [
        -4.336808689942018e-19,
        0.0946977287530899,
        2.7755575615628914e-17
      ]
    },
    {
      "children": [
        30
      ],
      "name": "Bip001 R Thigh_011_010",
      "rotation": [
        0.06321218609809875,
        0.0033203500788658857,
        0.0027330464217811823,
        0.9979908466339111
      ],
      "scale": [
        0.9999997615814209,
        0.9999996423721313,
        0.9999997615814209
      ],
      "translation": [
        0.07428046315908432,
        0.09707923233509064,
        -0.016043009236454964
      ]
    },
    {
      "children": [
        31
      ],
      "name": "Bip001 R Calf_012_011",
      "rotation": [
        -0.10525988042354584,
        -5.701829408621961e-08,
        3.4080738231523355e-08,
        0.994444727897644
      ],
      "scale": [
        1.0000001192092896,
        1.0000003576278687,
        1.0
      ],
      "translation": [
        -1.0913936421275139e-09,
        0.24490733444690704,
        -1.0477378964424133e-09
      ]
    },
    {
      "children": [
        32
      ],
      "name": "Bip001 R Foot_013_012",
      "rotation": [
        0.5482821464538574,
        0.4445401728153229,
        0.5474797487258911,
        0.44948482513427734
      ],
      "scale": [
        1.0000001192092896,
        1.0000001192092896,
        1.0000001192092896
      ],
      "translation": [
        6.344635039567947e-09,
        0.18460777401924133,
        6.461050361394882e-09
      ]
    },
    {
      "children": [
        33
      ],
      "name": "Bip001 R Toe0_014_013",
      "rotation": [
        0.5000004172325134,
        0.4999997019767761,
        -0.5000004172325134,
        -0.49999964237213135
      ],
      "translation": [
        0.046029239892959595,
        0.11739953607320786,
        1.1702504707500339e-06
      ]
    },
    {
      "children": [
        34
      ],
      "name": "Bip001 R Toe0Nub_015_014",
      "rotation": [
        -0.0016058729961514473,
        0.001745835761539638,
        -0.7063170671463013,
        0.7078916430473328
      ],
      "scale": [
        0.9999999403953552,
        1.000000238418579,
        1.0
      ],
      "translation": [
        -0.061286140233278275,
        0.0720057487487793,
        -0.005179873201996088
      ]
    },
    {
      "children": [
        35
      ],
      "name": "Bip001 R Toe0Nub_015_end_015",
      "rotation": [
        9.891356622659941e-10,
        1.1753132911351827e-09,
        -6.195367774353144e-09,
        1.0
      ],
      "translation": [
        -3.552171577714258e-15,
        0.09469772130250931,
        -2.8159236720171066e-08
      ]
    },
    {
      "name": "Bip001 R Toe0Nub_015_end_end_093",
      "rotation": [
        -1.3552527156068805e-20,
        -3.0152255339884956e-18,
        1.734723475976807e-18,
        1.0
      ],
      "translation": [
        0.0,
        0.09469775855541229,
        -5.551115123125783e-17
      ]
    },
    {
      "children": [
        37
      ],
      "name": "Bip001 Spine1_016_016",
      "rotation": [
        1.4583395113731967e-07,
        -0.06947031617164612,
        0.9975840449333191,
        -1.8502306886603037e-07
      ],
      "scale": [
        1.0,
        0.9999998807907104,
        1.0000076293945313
      ],
      "translation": [
        -2.537459305174128e-11,
        -0.10052359849214554,
        -0.00014531193301081657
      ]
    },
    {
      "children": [
        38,
        77,
        101
      ],
      "name": "Bip001 Neck_00_017",
      "rotation": [
        9.736250206060504e-08,
        -0.07796599715948105,
        0.9969561100006104,
        2.029158565619582e-07
      ],
      "scale": [
        1.0,
        1.0000001192092896,
        1.0000066757202148
      ],
      "translation": [
        -1.8594281669948032e-08,
        0.1983080357313156,
        -0.02342054806649685
      ]
    },
    {
      "children": [
        39,
        46,
        53,
        56,
        59,
        62,
        65,
        68,
        71,
        74
      ],
      "name": "Bip001 Head_01_018",
      "rotation": [
        7.5514838826507e-09,
        -0.01730821281671524,
        0.9998502135276794,
        -7.537848745187148e-08
      ],
      "scale": [
        1.0,
        0.9999999403953552,
        1.0000004768371582
      ],
      "translation": [
        -1.1724161138454425e-13,
        -0.06371442973613739,
        2.7939671909393837e-08
      ]
    },
    {
      "children": [
        40
      ],
      "name": "Ears_L01_018_019",
      "rotation": [
        -0.16666485369205475,
        0.4894942343235016,
        -0.12921473383903503,
        0.846121609210968
      ],
      "scale": [
        0.9999999403953552,
        0.9999999403953552,
        1.0
      ],
      "translation": [
        0.08780305087566376,
        0.20080706477165222,
        -0.11731168627738953
      ]
    },
    {
      "children": [
        41
      ],
      "name": "Ears_L02_019_020",
      "rotation": [
        0.017651015892624855,
        -0.04839140176773071,
        0.025115536525845528,
        0.9983566403388977
      ],
      "scale": [
        1.0,
        1.0000001192092896,
        0.9999999403953552
      ],
      "translation": [
        -2.60770320892334e-08,
        0.08480892330408096,
        7.450580596923828e-09
      ]
    },
    {
      "children": [
        42
      ],
      "name": "Ears_L03_020_021",
      "rotation": [
        0.005415317602455616,
        -0.04696404188871384,
        0.013950963504612446,
        0.9987844824790955
      ],
      "scale": [
        1.0,
        0.9999995231628418,
        0.9999995827674866
      ],
      "translation": [
        4.842877388000488e-08,
        0.08536994457244873,
        -7.450580596923828e-09
      ]
    },
    {
      "children": [
        43
      ],
      "name": "Ears_L04_021_022",
      "rotation": [
        0.0006784262368455529,
        -0.0071279737167060375,
        0.022163573652505875,
        0.9997287392616272
      ],
      "scale": [
        0.9999999403953552,
        1.0,
        0.9999999403953552
      ],
      "translation": [
        1.4901161193847656e-08,
        0.09035208821296692,
        2.7755575615628914e-17
      ]
    },
    {
      "children": [
        44
      ],
      "name": "Ears_L05_022_023",
      "rotation": [
        0.015184393152594566,
        0.008191070519387722,
        0.018852435052394867,
        0.9996734261512756
      ],
      "scale": [
        0.9999999403953552,
        0.9999997019767761,
        0.9999999403953552
      ],
      "translation": [
        3.0547380447387695e-07,
        0.08964184671640396,
        1.1175870895385742e-07
      ]
    },
    {
      "children": [
        45
      ],
      "name": "Ears_L05_022_end_024",
      "rotation": [
        -6.519258910486769e-09,
        9.080395990679335e-09,
        -6.519258910486769e-09,
        1.0
      ],
      "scale": [
        0.9999999403953552,
        0.9999998807907104,
        0.9999998807907104
      ],
      "translation": [
        -2.0139850676059723e-08,
        0.08964208513498306,
        0.0
      ]
    },
    {
      "name": "Ears_L05_022_end_end_094",
      "rotation": [
        -6.938893903907228e-18,
        -4.81482486096809e-35,
        6.938893903907228e-18,
        1.0
      ],
      "translation": [
        2.7755575615628914e-17,
        0.08964207768440247,
        2.7755575615628914e-17
      ]
    },
    {
      "children": [
        47
      ],
      "name": "Ears_R01_023_025",
      "rotation": [
        -0.12921465933322906,
        0.8461220264434814,
        -0.16666457056999207,
        0.48949360847473145
      ],
      "scale": [
        1.0000001192092896,
        1.000000238418579,
        0.9999998807907104
      ],
      "translation": [
        -0.0884799137711525,
        0.20010432600975037,
        -0.11874733120203018
      ]
    },
    {
      "children": [
        48
      ],
      "name": "Ears_R02_024_026",
      "rotation": [
        -0.017650853842496872,
        0.048391710966825485,
        0.025116054341197014,
        0.9983566999435425
      ],
      "scale": [
        1.0000001192092896,
        0.9999998807907104,
        1.0000001192092896
      ],
      "translation": [
        5.587935447692871e-08,
        0.08480873703956604,
        1.4901161193847656e-08
      ]
    },
    {
      "children": [
        49
      ],
      "name": "Ears_R03_025_027",
      "rotation": [
        -0.005414597224444151,
        0.04696442186832428,
        0.013950261287391186,
        0.9987844824790955
      ],
      "scale": [
        1.0000001192092896,
        0.9999997019767761,
        0.9999998807907104
      ],
      "translation": [
        -7.450580596923828e-09,
        0.08536956459283829,
        1.4901161193847656e-08
      ]
    },
    {
      "children": [
        50
      ],
      "name": "Ears_R04_026_028",
      "rotation": [
        -0.0006774482899345458,
        0.007124101743102074,
        0.022163307294249535,
        0.9997288584709167
      ],
      "scale": [
        0.9999997615814209,
        1.000000238418579,
        0.9999997615814209
      ],
      "translation": [
        7.450580596923828e-09,
        0.09035295993089676,
        -2.9802322387695313e-08
      ]
    },
    {
      "children": [
        51
      ],
      "name": "Ears_R05_027_029",
      "rotation": [
        -0.015183744952082634,
        -0.00819465797394514,
        0.01885325089097023,
        0.9996733665466309
      ],
      "scale": [
        1.0,
        0.9999998807907104,
        1.0
      ],
      "translation": [
        7.450580596923828e-09,
        0.08964121341705322,
        -7.450580596923828e-09
      ]
    },
    {
      "children": [
        52
      ],
      "name": "Ears_R05_027_end_030",
      "rotation": [
        -5.776528269052505e-07,
        -6.209593266248703e-07,
        -1.6530975699424744e-07,
        1.0
      ],
      "translation": [
        -2.663000486791134e-08,
        0.08964154869318008,
        0.0
      ]
    },
    {
      "name": "Ears_R05_027_end_end_095",
      "rotation": [
        -2.0816681711721685e-17,
        -2.7755575615628914e-17,
        -5.7777898331617076e-34,
        1.0
      ],
      "translation": [
        0.0,
        0.08964160829782486,
        2.7755575615628914e-17
      ]
    },
    {
      "children": [
        54
      ],
      "name": "Eye_L01_028_031",
      "rotation": [
        0.09017805010080338,
        0.7265778183937073,
        0.6753014326095581,
        -0.0889974907040596
      ],
      "scale": [
        0.9999999403953552,
        1.000000238418579,
        1.0000001192092896
      ],
      "translation": [
        0.04455474391579628,
        0.1173914223909378,
        0.022120172157883644
      ]
    },
    {
      "children": [
        55
      ],
      "name": "Eye_L01_028_end_032",
      "rotation": [
        7.677590474486351e-08,
        -2.8172511434831904e-08,
        4.971662193042903e-08,
        1.0
      ],
      "scale": [
        0.9999999403953552,
        1.0,
        0.9999999403953552
      ],
      "translation": [
        -6.938893903907228e-18,
        0.05331803113222122,
        6.07105903327465e-08
      ]
    },
    {
      "name": "Eye_L01_028_end_end_096",
      "rotation": [
        -1.734723475976807e-18,
        4.81482486096809e-35,
        -2.7755575615628914e-17,
        1.0
      ],
      "translation": [
        0.0,
        0.05331876873970032,
        0.0
      ]
    },
    {
      "children": [
        57
      ],
      "name": "Eye_R01_029_033",
      "rotation": [
        0.6753007769584656,
        -0.08899649232625961,
        0.09017729014158249,
        0.7265786528587341
      ],
      "scale": [
        0.9999998807907104,
        1.0000001192092896,
        1.0000001192092896
      ],
      "translation": [
        -0.04408327117562294,
        0.1173914298415184,
        0.022120309993624687
      ]
    },
    {
      "children": [
        58
      ],
      "name": "Eye_R01_029_end_034",
      "rotation": [
        -4.6507928175287816e-08,
        1.5133993613858365e-08,
        1.2078091859990536e-09,
        1.0
      ],
      "scale": [
        0.9999999403953552,
        0.9999998807907104,
        0.9999998807907104
      ],
      "translation": [
        -1.3877787807814457e-17,
        0.05331803858280182,
        -7.683411240577698e-09
      ]
    },
    {
      "name": "Eye_R01_029_end_end_097",
      "rotation": [
        0.0,
        -2.6020852139652106e-18,
        0.0,
        1.0
      ],
      "translation": [
        0.0,
        0.05331877991557121,
        0.0
      ]
    },
    {
      "children": [
        60
      ],
      "name": "Eyelid_L01_030_035",
      "rotation": [
        0.062185004353523254,
        0.882797360420227,
        0.43484339118003845,
        -0.16647320985794067
      ],
      "scale": [
        1.0,
        1.0000007152557373,
        1.0000001192092896
      ],
      "translation": [
        0.044554710388183594,
        0.12121018022298813,
        0.017340268939733505
      ]
    },
    {
      "children": [
        61
      ],
      "name": "Eyelid_L01_030_end_036",
      "rotation": [
        -6.146728992462158e-08,
        8.633360835119674e-07,
        1.4901162970204496e-08,
        1.0
      ],
      "scale": [
        0.9999999403953552,
        0.9999999403953552,
        1.0
      ],
      "translation": [
        -3.5390257835388184e-08,
        0.05331822484731674,
        1.778826117515564e-07
      ]
    },
    {
      "name": "Eyelid_L01_030_end_end_098",
      "rotation": [
        -2.7755575615628914e-17,
        1.3877787807814457e-17,
        -5.551115123125783e-17,
        1.0
      ],
      "translation": [
        0.0,
        0.053318727761507034,
        2.220446049250313e-16
      ]
    },
    {
      "children": [
        63
      ],
      "name": "Eyelid_R01_031_037",
      "rotation": [
        0.43484359979629517,
        -0.1664721518754959,
        0.06218467652797699,
        0.882797360420227
      ],
      "scale": [
        1.0,
        1.0000001192092896,
        1.0000001192092896
      ],
      "translation": [
        -0.04408326372504234,
        0.12121007591485977,
        0.017340481281280518
      ]
    },
    {
      "children": [
        64
      ],
      "name": "Eyelid_R01_031_end_038",
      "rotation": [
        5.2154067731180476e-08,
        -8.81962535004277e-07,
        -7.916241884231567e-08,
        1.0
      ],
      "scale": [
        1.0,
        1.0,
        0.9999999403953552
      ],
      "translation": [
        1.30385160446167e-08,
        0.05331820994615555,
        -9.12696123123169e-08
      ]
    },
    {
      "name": "Eyelid_R01_031_end_end_099",
      "rotation": [
        -2.7755575615628914e-17,
        -7.703719777548943e-34,
        2.7755575615628914e-17,
        1.0
      ],
      "translation": [
        0.0,
        0.05331873521208763,
        2.220446049250313e-16
      ]
    },
    {
      "children": [
        66
      ],
      "name": "Mouth_01_032_039",
      "rotation": [
        4.77420314837218e-07,
        0.6667443513870239,
        0.7452865839004517,
        -3.25806695400388e-07
      ],
      "scale": [
        1.0,
        0.9999995231628418,
        0.9999998807907104
      ],
      "translation": [
        -1.6978292194380629e-07,
        0.05304795131087303,
        0.005365262273699045
      ]
    },
    {
      "children": [
        67
      ],
      "name": "Mouth_01_032_end_040",
      "rotation": [
        8.940696716308594e-08,
        1.8208233143468533e-08,
        -1.7674827801437282e-13,
        1.0
      ],
      "scale": [
        1.0,
        0.9999999403953552,
        1.0
      ],
      "translation": [
        2.9307841418503566e-14,
        0.053317952901124954,
        -3.911556945013217e-08
      ]
    },
    {
      "name": "Mouth_01_032_end_end_0100",
      "rotation": [
        1.3877787807814457e-17,
        1.734723475976807e-18,
        -8.673617379884035e-19,
        1.0
      ],
      "translation": [
        9.75781955236954e-19,
        0.05331874638795853,
        2.220446049250313e-16
      ]
    },
    {
      "children": [
        69
      ],
      "name": "Mouth_02_033_041",
      "rotation": [
        0.10555820167064667,
        0.6116592884063721,
        0.7514885067939758,
        -0.2235965132713318
      ],
      "scale": [
        1.0,
        0.9999999403953552,
        1.0
      ],
      "translation": [
        0.0023406981490552425,
        0.06157582998275757,
        0.06503789126873016
      ]
    },
    {
      "children": [
        70
      ],
      "name": "Mouth_02_033_end_042",
      "rotation": [
        -8.66129994392395e-08,
        -7.208436159089615e-07,
        2.421438694000244e-08,
        1.0
      ],
      "scale": [
        1.0000001192092896,
        1.0,
        1.0
      ],
      "translation": [
        4.6566128730773926e-08,
        0.05331818759441376,
        -7.82310962677002e-08
      ]
    },
    {
      "name": "Mouth_02_033_end_end_0101",
      "rotation": [
        2.7755575615628914e-17,
        -1.3877787807814457e-17,
        3.851859888774472e-34,
        1.0
      ],
      "translation": [
        0.0,
        0.05331874266266823,
        -2.220446049250313e-16
      ]
    },
    {
      "children": [
        72
      ],
      "name": "Mouth_03_034_043",
      "rotation": [
        0.7512202858924866,
        -0.2236403375864029,
        0.10545962303876877,
        0.6119896769523621
      ],
      "scale": [
        0.9999999403953552,
        0.9999999403953552,
        1.0
      ],
      "translation": [
        -0.0024151019752025604,
        0.06141394004225731,
        0.0651112049818039
      ]
    },
    {
      "children": [
        73
      ],
      "name": "Mouth_03_034_end_044",
      "rotation": [
        -1.2479723920932884e-07,
        8.1956392250504e-07,
        2.7008354663848877e-08,
        1.0
      ],
      "scale": [
        1.0,
        0.9999999403953552,
        0.9999999403953552
      ],
      "translation": [
        -1.1175870895385742e-08,
        0.05331820994615555,
        -7.427297532558441e-08
      ]
    },
    {
      "name": "Mouth_03_034_end_end_0102",
      "rotation": [
        -2.7755575615628914e-17,
        1.3877787807814457e-17,
        3.851859888774472e-34,
        1.0
      ],
      "translation": [
        -5.551115123125783e-17,
        0.053318753838539124,
        0.0
      ]
    },
    {
      "children": [
        75
      ],
      "name": "Bip001 HeadNub_017_045",
      "rotation": [
        -0.523261308670044,
        0.5232616662979126,
        0.47560274600982666,
        0.47560158371925354
      ],
      "scale": [
        1.000000238418579,
        1.0,
        1.0000001192092896
      ],
      "translation": [
        1.7383420924943493e-07,
        -0.9274187684059143,
        0.09465306997299194
      ]
    },
    {
      "children": [
        76
      ],
      "name": "Bip001 HeadNub_017_end_046",
      "rotation": [
        1.1819381597888423e-06,
        3.87366725362881e-08,
        6.160966847801319e-08,
        1.0
      ],
      "scale": [
        1.0,
        0.9999998807907104,
        1.0
      ],
      "translation": [
        -1.0972571740097692e-09,
        0.05331873893737793,
        -6.287426579376643e-09
      ]
    },
    {
      "name": "Bip001 HeadNub_017_end_end_0103",
      "rotation": [
        1.3319593095573873e-18,
        2.0328790734103208e-20,
        -2.707712207033272e-38,
        1.0
      ],
      "translation": [
        -1.734723475976807e-18,
        0.05331873521208763,
        -2.7755575615628914e-17
      ]
    },
    {
      "children": [
        78
      ],
      "name": "Bip001 L Clavicle_035_047",
      "rotation": [
        -0.620368480682373,
        0.7803800106048584,
        0.0594167523086071,
        0.05118270218372345
      ],
      "scale": [
        1.0,
        0.9999996423721313,
        1.0000001192092896
      ],
      "translation": [
        -0.04086332395672798,
        0.04763510450720787,
        0.005003392696380615
      ]
    },
    {
      "children": [
        79
      ],
      "name": "Bip001 L UpperArm_036_048",
      "rotation": [
        0.0002548410266172141,
        0.025230498984456062,
        0.22492976486682892,
        0.9740482568740845
      ],
      "scale": [
        1.0000001192092896,
        0.9999999403953552,
        1.0000001192092896
      ],
      "translation": [
        -8.597271516919136e-08,
        0.07248932123184204,
        -3.259629011154175e-09
      ]
    },
    {
      "children": [
        80
      ],
      "name": "Bip001 L Forearm_037_049",
      "rotation": [
        -0.014952652156352997,
        5.148862101123086e-07,
        3.090487155077426e-07,
        0.9998883008956909
      ],
      "scale": [
        1.0000001192092896,
        1.0,
        0.9999998211860657
      ],
      "translation": [
        -3.8475263863801956e-08,
        0.16157060861587524,
        6.984919309616089e-10
      ]
    },
    {
      "children": [
        81,
        86,
        91,
        96
      ],
      "name": "Bip001 L Hand_038_050",
      "rotation": [
        -0.025061603635549545,
        -0.040526289492845535,
        0.7658926248550415,
        0.6412004828453064
      ],
      "scale": [
        0.9999998211860657,
        0.9999998211860657,
        1.0000001192092896
      ],
      "translation": [
        -3.440072759985924e-08,
        0.13462653756141663,
        -9.458744898438454e-10
      ]
    },
    {
      "children": [
        82
      ],
      "name": "Bip001 L Finger0_039_051",
      "rotation": [
        -0.4573781490325928,
        0.07283753156661987,
        -0.2773725986480713,
        0.8417626619338989
      ],
      "scale": [
        1.0000001192092896,
        1.0,
        1.0000001192092896
      ],
      "translation": [
        0.017782088369131088,
        0.019025299698114395,
        -0.025546589866280556
      ]
    },
    {
      "children": [
        83
      ],
      "name": "Bip001 L Finger01_040_052",
      "rotation": [
        0.5565425157546997,
        0.4361889064311981,
        0.5565425753593445,
        0.4361880123615265
      ],
      "scale": [
        1.0000001192092896,
        1.000000238418579,
        1.000000238418579
      ],
      "translation": [
        -3.213062882423401e-08,
        0.021709149703383446,
        -1.6763806343078613e-08
      ]
    },
    {
      "children": [
        84
      ],
      "name": "Bip001 L Finger0Nub_041_053",
      "rotation": [
        -0.6300721168518066,
        0.15871572494506836,
        0.649516224861145,
        0.3949013352394104
      ],
      "scale": [
        1.0,
        1.0,
        1.000000238418579
      ],
      "translation": [
        0.4274398684501648,
        0.5012778043746948,
        -0.14524757862091064
      ]
    },
    {
      "children": [
        85
      ],
      "name": "Bip001 L Finger0Nub_041_end_054",
      "rotation": [
        -8.781150029335549e-08,
        3.6507849472400267e-06,
        -4.663012055476645e-13,
        1.0
      ],
      "translation": [
        3.683078148020158e-14,
        0.6745969653129578,
        -2.1243952430527457e-10
      ]
    },
    {
      "name": "Bip001 L Finger0Nub_041_end_end_0104",
      "rotation": [
        1.3552527156068805e-20,
        1.734723475976807e-18,
        -5.516302068993631e-19,
        1.0
      ],
      "translation": [
        7.589415207398531e-19,
        0.6745977401733398,
        -1.734723475976807e-18
      ]
    },
    {
      "children": [
        87
      ],
      "name": "Bip001 L Finger1_042_055",
      "rotation": [
        -0.46346792578697205,
        -0.46056491136550903,
        -0.5226655006408691,
        0.5476296544075012
      ],
      "scale": [
        1.0,
        1.0,
        1.0000001192092896
      ],
      "translation": [
        0.06699422746896744,
        0.0076533895917236805,
        -0.024791570380330086
      ]
    },
    {
      "children": [
        88
      ],
      "name": "Bip001 L Finger11_043_056",
      "rotation": [
        0.4944147765636444,
        0.5055230259895325,
        0.4944154918193817,
        0.5055233240127563
      ],
      "scale": [
        0.9999997615814209,
        0.9999999403953552,
        0.9999998211860657
      ],
      "translation": [
        -1.862645149230957e-09,
        0.023146308958530426,
        1.2543750926852226e-08
      ]
    },
    {
      "children": [
        89
      ],
      "name": "Bip001 L Finger1Nub_044_057",
      "rotation": [
        -0.03562499210238457,
        0.028182411566376686,
        0.9086437225341797,
        0.4150942265987396
      ],
      "scale": [
        0.9999998807907104,
        0.9999998807907104,
        0.9999999403953552
      ],
      "translation": [
        0.15433958172798157,
        0.6557086706161499,
        -0.031052079051733017
      ]
    },
    {
      "children": [
        90
      ],
      "name": "Bip001 L Finger1Nub_044_end_058",
      "rotation": [
        -2.1182904319516638e-09,
        9.946541013050592e-07,
        3.504080936522769e-08,
        1.0
      ],
      "translation": [
        -5.062798596154605e-14,
        0.6743435859680176,
        4.5916270785539837e-11
      ]
    },
    {
      "name": "Bip001 L Finger1Nub_044_end_end_0105",
      "rotation": [
        4.0657581468206416e-20,
        -1.0073205984829661e-39,
        -2.4775713707188285e-20,
        1.0
      ],
      "translation": [
        -4.0115480381963664e-18,
        0.6743442416191101,
        1.734723475976807e-18
      ]
    },
    {
      "children": [
        92
      ],
      "name": "Bip001 L Finger2_045_059",
      "rotation": [
        -0.48637786507606506,
        -0.47908154129981995,
        -0.5135897994041443,
        0.5197528004646301
      ],
      "scale": [
        0.9999998211860657,
        1.000000238418579,
        1.0
      ],
      "translation": [
        0.070148766040802,
        0.003341252915561199,
        -0.0006155017763376236
      ]
    },
    {
      "children": [
        93
      ],
      "name": "Bip001 L Finger21_046_060",
      "rotation": [
        0.5048782825469971,
        0.49507325887680054,
        0.5048789978027344,
        0.4950733482837677
      ],
      "scale": [
        1.0,
        1.0,
        1.0000001192092896
      ],
      "translation": [
        9.313225746154785e-10,
        0.023610476404428482,
        6.000482244417071e-08
      ]
    },
    {
      "children": [
        94
      ],
      "name": "Bip001 L Finger2Nub_047_061",
      "rotation": [
        -0.012102541513741016,
        -0.0038950948510318995,
        0.9054023027420044,
        0.42436423897743225
      ],
      "scale": [
        0.9999998807907104,
        0.9999998807907104,
        0.9999999403953552
      ],
      "translation": [
        0.16316629946231842,
        0.6565195918083191,
        -0.00701441615819931
      ]
    },
    {
      "children": [
        95
      ],
      "name": "Bip001 L Finger2Nub_047_end_062",
      "rotation": [
        -1.142410832599694e-09,
        -1.3504208595804812e-07,
        1.3387687403110249e-08,
        1.0
      ],
      "translation": [
        -7.810362057623921e-14,
        0.6765278577804565,
        2.726149028742242e-10
      ]
    },
    {
      "name": "Bip001 L Finger2Nub_047_end_end_0106",
      "rotation": [
        -2.710505431213761e-20,
        1.734723475976807e-18,
        -3.0935760816095184e-18,
        1.0
      ],
      "translation": [
        1.8431436932253575e-18,
        0.6765285730361938,
        1.734723475976807e-18
      ]
    },
    {
      "children": [
        97
      ],
      "name": "Bip001 L Finger3_048_063",
      "rotation": [
        -0.4748205542564392,
        -0.48439598083496094,
        -0.49620094895362854,
        0.5419322848320007
      ],
      "scale": [
        0.9999999403953552,
        1.0,
        1.0000001192092896
      ],
      "translation": [
        0.06879749894142151,
        0.00551505945622921,
        0.025469014421105385
      ]
    },
    {
      "children": [
        98
      ],
      "name": "Bip001 L Finger31_049_064",
      "rotation": [
        0.4898699223995209,
        0.5099281668663025,
        0.48987090587615967,
        0.5099286437034607
      ],
      "scale": [
        1.0000001192092896,
        1.0000001192092896,
        1.0000001192092896
      ],
      "translation": [
        0.0,
        0.023166121914982796,
        -3.4226104617118835e-08
      ]
    },
    {
      "children": [
        99
      ],
      "name": "Bip001 L Finger3Nub_050_065",
      "rotation": [
        -0.025498446077108383,
        -0.004443317651748657,
        0.9060410261154175,
        0.4223979115486145
      ],
      "scale": [
        0.9999997019767761,
        0.9999997019767761,
        0.9999996423721313
      ],
      "translation": [
        0.16347427666187286,
        0.6515567898750305,
        -0.03503826633095741
      ]
    },
    {
      "children": [
        100
      ],
      "name": "Bip001 L Finger3Nub_050_end_066",
      "rotation": [
        2.667120080346308e-09,
        -1.5995587432371394e-07,
        -2.3399596926765298e-08,
        1.0
      ],
      "scale": [
        1.0,
        0.9999998807907104,
        1.0
      ],
      "translation": [
        -3.685883521141464e-14,
        0.6726645231246948,
        -2.3980270547063753e-10
      ]
    },
    {
      "name": "Bip001 L Finger3Nub_050_end_end_0107",
      "rotation": [
        -2.710505431213761e-20,
        -1.734723475976807e-18,
        1.256361619014941e-18,
        1.0
      ],
      "translation": [
        -7.860465750519907e-19,
        0.6726651787757874,
        0.0
      ]
    },
    {
      "children": [
        102
      ],
      "name": "Bip001 R Clavicle_064_067",
      "rotation": [
        0.6203683018684387,
        0.780380129814148,
        0.05941847339272499,
        -0.051180582493543625
      ],
      "scale": [
        1.0,
        0.9999998211860657,
        1.0000001192092896
      ],
      "translation": [
        0.04086340218782425,
        0.04763485863804817,
        0.005003578960895538
      ]
    },
    {
      "children": [
        103
      ],
      "name": "Bip001 R UpperArm_065_068",
      "rotation": [
        0.0002547656185925007,
        -0.02523103356361389,
        -0.22493019700050354,
        0.9740481376647949
      ],
      "scale": [
        1.0000001192092896,
        0.9999998211860657,
        1.0
      ],
      "translation": [
        -2.19675712287426e-07,
        0.07248940318822861,
        -3.434251993894577e-09
      ]
    },
    {
      "children": [
        104
      ],
      "name": "Bip001 R Forearm_066_069",
      "rotation": [
        -0.01495260652154684,
        3.665965948584926e-07,
        4.6286368160508573e-07,
        0.9998883008956909
      ],
      "scale": [
        0.9999997615814209,
        0.9999997019767761,
        0.9999997615814209
      ],
      "translation": [
        -5.547190085053444e-08,
        0.16157034039497375,
        -5.3551048040390015e-09
      ]
    },
    {
      "children": [
        105,
        110,
        115,
        120
      ],
      "name": "Bip001 R Hand_067_070",
      "rotation": [
        0.7658929824829102,
        0.641200065612793,
        -0.02506120502948761,
        -0.04052599519491196
      ],
      "scale": [
        0.9999998807907104,
        1.0000001192092896,
        0.9999999403953552
      ],
      "translation": [
        3.032619133591652e-08,
        0.13462691009044647,
        -2.0954757928848267e-09
      ]
    },
    {
      "children": [
        106
      ],
      "name": "Bip001 R Finger0_068_071",
      "rotation": [
        0.2773723006248474,
        0.8417627811431885,
        0.4573780596256256,
        0.07283735275268555
      ],
      "scale": [
        1.0000001192092896,
        1.0000001192092896,
        0.9999999403953552
      ],
      "translation": [
        0.01778195984661579,
        0.019025180488824844,
        0.02554665319621563
      ]
    },
    {
      "children": [
        107
      ],
      "name": "Bip001 R Finger01_069_072",
      "rotation": [
        0.0851021558046341,
        0.7019668221473694,
        0.08510199189186096,
        0.7019671201705933
      ],
      "scale": [
        0.9999998807907104,
        0.9999998211860657,
        1.0000001192092896
      ],
      "translation": [
        2.1187588572502136e-08,
        0.021709231659770012,
        5.21540641784668e-08
      ]
    },
    {
      "children": [
        108
      ],
      "name": "Bip001 R Finger0Nub_070_073",
      "rotation": [
        0.39490044116973877,
        0.6495161056518555,
        -0.6300729513168335,
        -0.15871542692184448
      ],
      "scale": [
        0.9999998211860657,
        0.9999998211860657,
        0.9999999403953552
      ],
      "translation": [
        -0.5012795329093933,
        0.4274387061595917,
        0.14524833858013153
      ]
    },
    {
      "children": [
        109
      ],
      "name": "Bip001 R Finger0Nub_070_end_074",
      "rotation": [
        -1.8374567645196294e-08,
        2.9239865853014635e-06,
        1.8757774000732752e-08,
        1.0
      ],
      "translation": [
        2.3488608391630805e-08,
        0.674597978591919,
        -1.1118430620626896e-09
      ]
    },
    {
      "name": "Bip001 R Finger0Nub_070_end_end_0108",
      "rotation": [
        -1.28053119955299e-38,
        -1.3552527156068805e-20,
        -9.44865252662172e-19,
        1.0
      ],
      "translation": [
        0.0,
        0.6745977997779846,
        1.734723475976807e-18
      ]
    },
    {
      "children": [
        111
      ],
      "name": "Bip001 R Finger1_071_075",
      "rotation": [
        0.5226641297340393,
        0.547631025314331,
        0.46346697211265564,
        -0.460565984249115
      ],
      "scale": [
        1.0000001192092896,
        1.0000003576278687,
        0.9999998807907104
      ],
      "translation": [
        0.06699404865503311,
        0.007653186563402414,
        0.024791592732071877
      ]
    },
    {
      "children": [
        112
      ],
      "name": "Bip001 R Finger11_072_076",
      "rotation": [
        0.49441516399383545,
        0.5055237412452698,
        0.4944145679473877,
        0.5055230855941772
      ],
      "scale": [
        0.9999998211860657,
        0.9999999403953552,
        0.9999999403953552
      ],
      "translation": [
        3.958120942115784e-09,
        0.023146364837884903,
        2.8638169169425964e-08
      ]
    },
    {
      "children": [
        113
      ],
      "name": "Bip001 R Finger1Nub_073_077",
      "rotation": [
        0.908643901348114,
        -0.41509392857551575,
        -0.035626139491796494,
        -0.028183018788695335
      ],
      "scale": [
        1.0,
        1.0000001192092896,
        0.9999998807907104
      ],
      "translation": [
        0.1543397456407547,
        0.6557096242904663,
        0.03105214051902294
      ]
    },
    {
      "children": [
        114
      ],
      "name": "Bip001 R Finger1Nub_073_end_078",
      "rotation": [
        3.13814840779969e-09,
        -9.722996310301824e-07,
        1.1056596749270398e-09,
        1.0
      ],
      "translation": [
        1.442705818092277e-13,
        0.674343466758728,
        -6.707779887094034e-10
      ]
    },
    {
      "name": "Bip001 R Finger1Nub_073_end_end_0109",
      "rotation": [
        0.0,
        0.0,
        1.5595994141319805e-18,
        1.0
      ],
      "translation": [
        -2.0057740190981832e-18,
        0.6743441224098206,
        -1.734723475976807e-18
      ]
    },
    {
      "children": [
        116
      ],
      "name": "Bip001 R Finger2_074_079",
      "rotation": [
        0.5135878920555115,
        0.5197553038597107,
        0.48637548089027405,
        -0.47908347845077515
      ],
      "scale": [
        0.9999999403953552,
        1.000000238418579,
        1.0000001192092896
      ],
      "translation": [
        0.07014879584312439,
        0.0033412554766982794,
        0.000615488737821579
      ]
    },
    {
      "children": [
        117
      ],
      "name": "Bip001 R Finger21_075_080",
      "rotation": [
        0.5048792362213135,
        0.4950741231441498,
        0.5048778057098389,
        0.4950729012489319
      ],
      "scale": [
        1.0000001192092896,
        1.0,
        1.0000001192092896
      ],
      "translation": [
        1.3969838619232178e-09,
        0.023610342293977737,
        3.9108272176235914e-08
      ]
    },
    {
      "children": [
        118
      ],
      "name": "Bip001 R Finger2Nub_076_081",
      "rotation": [
        0.9054021239280701,
        -0.4243646562099457,
        -0.012103669345378876,
        0.0038944268599152565
      ],
      "scale": [
        1.000000238418579,
        1.000000238418579,
        0.9999998211860657
      ],
      "translation": [
        0.16316644847393036,
        0.6565198302268982,
        0.007014461327344179
      ]
    },
    {
      "children": [
        119
      ],
      "name": "Bip001 R Finger2Nub_076_end_082",
      "rotation": [
        1.1144785094785448e-09,
        1.3684565658422798e-07,
        -1.0041845133201832e-09,
        1.0
      ],
      "translation": [
        -7.061406038892659e-14,
        0.6765276193618774,
        2.361451312271612e-10
      ]
    },
    {
      "name": "Bip001 R Finger2Nub_076_end_end_0110",
      "rotation": [
        1.3552527156068805e-20,
        -2.0071795629030954e-38,
        -1.4810371082741441e-18,
        1.0
      ],
      "translation": [
        3.63207727782644e-18,
        0.6765285134315491,
        -1.734723475976807e-18
      ]
    },
    {
      "children": [
        121
      ],
      "name": "Bip001 R Finger3_077_083",
      "rotation": [
        0.49620041251182556,
        0.541932225227356,
        0.47482070326805115,
        -0.48439666628837585
      ],
      "scale": [
        0.9999999403953552,
        1.000000238418579,
        1.0000001192092896
      ],
      "translation": [
        0.06879736483097076,
        0.005514912307262421,
        -0.02546902559697628
      ]
    },
    {
      "children": [
        122
      ],
      "name": "Bip001 R Finger31_078_084",
      "rotation": [
        0.48987093567848206,
        0.5099286437034607,
        0.4898702800273895,
        0.5099278092384338
      ],
      "scale": [
        1.0,
        0.9999998807907104,
        0.9999998211860657
      ],
      "translation": [
        1.862645149230957e-09,
        0.023165855556726456,
        2.403976395726204e-08
      ]
    },
    {
      "children": [
        123
      ],
      "name": "Bip001 R Finger3Nub_079_085",
      "rotation": [
        0.9060409069061279,
        -0.4223978817462921,
        -0.02549959160387516,
        0.0044426461681723595
      ],
      "scale": [
        0.9999998211860657,
        0.9999997019767761,
        1.0
      ],
      "translation": [
        0.1634741872549057,
        0.6515577435493469,
        0.03503832593560219
      ]
    },
    {
      "children": [
        124
      ],
      "name": "Bip001 R Finger3Nub_079_end_086",
      "rotation": [
        1.6209102948749887e-09,
        1.552966040208048e-07,
        -5.7627032035156844e-09,
        1.0
      ],
      "scale": [
        1.0,
        0.9999998807907104,
        1.0
      ],
      "translation": [
        4.45421667214993e-13,
        0.6726645827293396,
        -2.8938373919373817e-10
      ]
    },
    {
      "name": "Bip001 R Finger3Nub_079_end_end_0111",
      "rotation": [
        0.0,
        -0.0,
        -1.61169194038812e-18,
        1.0
      ],
      "translation": [
        -7.860465750519907e-19,
        0.6726653575897217,
        0.0
      ]
    },
    {
      "children": [
        126
      ],
      "name": "Pelvis_101_0121_087",
      "rotation": [
        1.5264373587342561e-06,
        0.9157505631446838,
        -0.40174731612205505,
        1.9384262373023375e-07
      ],
      "scale": [
        1.0,
        0.9999999403953552,
        1.0
      ],
      "translation": [
        3.1893887353362516e-07,
        0.012368767522275448,
        -0.08976903557777405
      ]
    },
    {
      "children": [
        127
      ],
      "name": "Pelvis_102_0122_088",
      "rotation": [
        -0.39587274193763733,
        4.2036720770965985e-08,
        -2.0221712304646644e-08,
        0.9183053970336914
      ],
      "scale": [
        0.9999998807907104,
        0.9999998211860657,
        1.0
      ],
      "translation": [
        5.5879283422655135e-09,
        0.058862388134002686,
        -1.4901280209755896e-08
      ]
    },
    {
      "children": [
        128
      ],
      "name": "Pelvis_102_0122_end_089",
      "rotation": [
        3.91155481338501e-08,
        -1.4210854715202004e-14,
        8.8817850440342e-15,
        1.0
      ],
      "scale": [
        1.0,
        0.9999999403953552,
        1.0
      ],
      "translation": [
        1.421042103433301e-14,
        0.05886251479387283,
        7.450400740793839e-09
      ]
    },
    {
      "name": "Pelvis_102_0122_end_end_0112",
      "rotation": [
        5.64237288394698e-37,
        -1.734723475976807e-18,
        3.2526065174565133e-19,
        1.0
      ],
      "translation": [
        3.0357660829594124e-18,
        0.058862462639808655,
        -2.7755575615628914e-17
      ]
    },
    {
      "children": [
        130
      ],
      "name": "Bip001 Footsteps_03_090",
      "rotation": [
        -1.7099726079550237e-08,
        7.099466786751173e-15,
        -1.587074083264639e-10,
        1.0
      ],
      "scale": [
        1.0000001192092896,
        1.0,
        1.0
      ],
      "translation": [
        -8.602150033750638e-16,
        -2.980232594040899e-08,
        2.450823721744655e-08
      ]
    },
    {
      "children": [
        131
      ],
      "name": "Bip001 Footsteps_03_end_091",
      "rotation": [
        -2.220446049250313e-15,
        1.762479051592436e-15,
        -4.9798125760264385e-17,
        1.0
      ],
      "translation": [
        2.1274868219953077e-18,
        0.7161697149276733,
        1.342586502550995e-15
      ]
    },
    {
      "name": "Bip001 Footsteps_03_end_end_0113",
      "rotation": [
        4.0657581468206416e-20,
        3.469446951953614e-18,
        7.09178335088663e-19,
        1.0
      ],
      "translation": [
        1.9568578663942474e-18,
        0.7161695957183838,
        5.421010862427522e-20
      ]
    }
  ],
  "samplers": [
    {
      "magFilter": 9729,
      "minFilter": 9987,
      "wrapS": 10497,
      "wrapT": 10497
    }
  ],
  "scene": 0,
  "scenes": [
    {
      "name": "Sketchfab_Scene",
      "nodes": [
        0
      ]
    }
  ],
  "skins": [
    {
      "inverseBindMatrices": 12,
      "joints": [
        11,
        18,
        19,
        20,
        21,
        22,
        23,
        24,
        25,
        26,
        27,
        28,
        29,
        30,
        31,
        32,
        33,
        34,
        35,
        36,
        37,
        38,
        39,
        40,
        41,
        42,
        43,
        44,
        45,
        46,
        47,
        48,
        49,
        50,
        51,
        52,
        53,
        54,
        55,
        56,
        57,
        58,
        59,
        60,
        61,
        62,
        63,
        64,
        65,
        66,
        67,
        68,
        69,
        70,
        71,
        72,
        73,
        74,
        75,
        76,
        77,
        78,
        79,
        80,
        81,
        82,
        83,
        84,
        85,
        86,
        87,
        88,
        89,
        90,
        91,
        92,
        93,
        94,
        95,
        96,
        97,
        98,
        99,
        100,
        101,
        102,
        103,
        104,
        105,
        106,
        107,
        108,
        109,
        110,
        111,
        112,
        113,
        114,
        115,
        116,
        117,
        118,
        119,
        120,
        121,
        122,
        123,
        124,
        125,
        126,
        127,
        128,
        129,
        130,
        131
      ],
      "skeleton": 11
    }
  ],
  "textures": [
    {
      "sampler": 0,
      "source": 0
    },
    {
      "sampler": 0,
      "source": 1
    },
    {
      "sampler": 0,
      "source": 2
    }
  ]
}
